<svg width="20" height="22" viewBox="0 0 20 22" fill="none" xmlns="http://www.w3.org/2000/svg">
<path d="M14.6 13.0125C14.4 12.9125 13.1 12.3125 12.9 12.2125C12.7 12.1125 12.5 12.1125 12.3 12.3125C12.1 12.5125 11.7 13.1125 11.5 13.3125C11.4 13.5125 11.2 13.5125 11 13.4125C10.3 13.1125 9.6 12.7125 9 12.2125C8.5 11.7125 8 11.1125 7.6 10.5125C7.5 10.3125 7.6 10.1125 7.7 10.0125C7.8 9.91255 7.9 9.71255 8.1 9.61255C8.2 9.51255 8.3 9.31255 8.3 9.21255C8.4 9.11255 8.4 8.91255 8.3 8.81255C8.2 8.71255 7.7 7.51255 7.5 7.01255C7.4 6.31255 7.2 6.31255 7 6.31255C6.9 6.31255 6.7 6.31255 6.5 6.31255C6.3 6.31255 6 6.51255 5.9 6.61255C5.3 7.21255 5 7.91255 5 8.71255C5.1 9.61255 5.4 10.5125 6 11.3125C7.1 12.9125 8.5 14.2125 10.2 15.0125C10.7 15.2125 11.1 15.4125 11.6 15.5125C12.1 15.7125 12.6 15.7125 13.2 15.6125C13.9 15.5125 14.5 15.0125 14.9 14.4125C15.1 14.0125 15.1 13.6125 15 13.2125C15 13.2125 14.8 13.1125 14.6 13.0125ZM17.1 3.91255C13.2 0.0125489 6.9 0.0125489 3 3.91255C-0.2 7.11255 -0.8 12.0125 1.4 15.9125L0 21.0125L5.3 19.6125C6.8 20.4125 8.4 20.8125 10 20.8125C15.5 20.8125 19.9 16.4125 19.9 10.9125C20 8.31255 18.9 5.81255 17.1 3.91255ZM14.4 17.9125C13.1 18.7125 11.6 19.2125 10 19.2125C8.5 19.2125 7.1 18.8125 5.8 18.1125L5.5 17.9125L2.4 18.7125L3.2 15.7125L3 15.4125C0.6 11.4125 1.8 6.41255 5.7 3.91255C9.6 1.41255 14.6 2.71255 17 6.51255C19.4 10.4125 18.3 15.5125 14.4 17.9125Z" fill="green"/>
</svg>
